<svg width="40" height="18" viewBox="0 0 40 18" fill="none" xmlns="http://www.w3.org/2000/svg">
<path d="M6.76728 17.6987C5.4565 17.6987 4.29051 17.4315 3.26933 16.8972C2.26338 16.3629 1.4632 15.6357 0.868772 14.7155C0.289591 13.7805 0 12.7193 0 11.532C0 10.3298 0.289591 9.2686 0.868772 8.34842C1.4632 7.4134 2.26338 6.68616 3.26933 6.1667C4.29051 5.6324 5.4565 5.36525 6.76728 5.36525C8.06281 5.36525 9.22118 5.6324 10.2424 6.1667C11.2636 6.68616 12.0637 7.40598 12.6429 8.32616C13.2221 9.24634 13.5117 10.3149 13.5117 11.532C13.5117 12.7193 13.2221 13.7805 12.6429 14.7155C12.0637 15.6357 11.2636 16.3629 10.2424 16.8972C9.22118 17.4315 8.06281 17.6987 6.76728 17.6987ZM6.76728 14.8491C7.3617 14.8491 7.89516 14.7155 8.36765 14.4483C8.84014 14.1812 9.21356 13.8027 9.48791 13.3129C9.76226 12.8083 9.89943 12.2147 9.89943 11.532C9.89943 10.8344 9.76226 10.2407 9.48791 9.75096C9.21356 9.26118 8.84014 8.88272 8.36765 8.61557C7.89516 8.34842 7.3617 8.21485 6.76728 8.21485C6.17285 8.21485 5.6394 8.34842 5.16691 8.61557C4.69442 8.88272 4.31338 9.26118 4.02379 9.75096C3.74944 10.2407 3.61226 10.8344 3.61226 11.532C3.61226 12.2147 3.74944 12.8083 4.02379 13.3129C4.31338 13.8027 4.69442 14.1812 5.16691 14.4483C5.6394 14.7155 6.17285 14.8491 6.76728 14.8491Z" fill="#424242"/>
<path d="M13.9614 17.5206L19.4713 10.4856L19.4027 12.4002L14.1215 5.54335H18.1224L21.4603 10.0181L19.9514 10.0626L23.4036 5.54335H27.1988L21.8947 12.3334V10.4634L27.3817 17.5206H23.335L19.8371 12.7564L21.3231 12.9567L17.8481 17.5206H13.9614Z" fill="#424242"/>
<path d="M29.113 17.5206V5.54335H32.6795V17.5206H29.113ZM30.8962 3.87367C30.2409 3.87367 29.7074 3.68815 29.2959 3.31711C28.8843 2.94607 28.6786 2.48597 28.6786 1.93683C28.6786 1.38769 28.8843 0.927603 29.2959 0.556562C29.7074 0.185521 30.2409 0 30.8962 0C31.5516 0 32.0851 0.1781 32.4966 0.5343C32.9081 0.875658 33.1139 1.32091 33.1139 1.87005C33.1139 2.44887 32.9081 2.93122 32.4966 3.31711C32.1003 3.68815 31.5669 3.87367 30.8962 3.87367Z" fill="#424242"/>
<path d="M40 15.6663C40 16.7888 38.9537 17.6987 37.6631 17.6987C36.3725 17.6987 35.3262 16.7888 35.3262 15.6663C35.3262 14.5439 36.3725 13.634 37.6631 13.634C38.9537 13.634 40 14.5439 40 15.6663Z" fill="#424242"/>
</svg>
